<?xml version="1.0" standalone="no"?>
<!DOCTYPE svg PUBLIC "-//W3C//DTD SVG 20010904//EN"
 "http://www.w3.org/TR/2001/REC-SVG-20010904/DTD/svg10.dtd">
<svg version="1.0" xmlns="http://www.w3.org/2000/svg"
 width="1056.000000pt" height="1056.000000pt" viewBox="0 0 1056.000000 1056.000000"
 preserveAspectRatio="xMidYMid meet">
<metadata>
Created by potrace 1.14, written by Peter Selinger 2001-2017
</metadata>
<g transform="translate(0.000000,1056.000000) scale(0.100000,-0.100000)"
fill="#000000" stroke="none">
<path d="M1198 9305 c-2 -2 -30 -7 -63 -10 -75 -9 -211 -53 -295 -96 -36 -18
-67 -36 -70 -39 -3 -3 -30 -21 -60 -41 -154 -101 -309 -309 -375 -504 -17 -50
-21 -65 -31 -119 -2 -16 -7 -33 -11 -39 -3 -5 -7 -82 -8 -171 -2 -89 -4 -166
-5 -171 -2 -6 -1 -12 0 -15 6 -14 5 -82 -1 -86 -4 -2 -4 -17 0 -32 5 -15 5
-36 1 -47 -4 -11 -5 -24 -2 -30 5 -8 7 -118 2 -140 -1 -5 -1 -12 0 -15 5 -15
5 -79 -1 -107 -4 -18 -4 -33 0 -33 3 0 6 -14 7 -30 1 -17 -2 -30 -6 -30 -6 0
-6 -35 0 -50 2 -5 0 -107 -2 -125 -1 -6 2 -23 6 -39 4 -15 3 -25 -1 -23 -9 6
-10 -44 -1 -59 3 -5 4 -18 2 -29 -4 -19 -4 -41 -3 -203 0 -39 -2 -76 -6 -81
-3 -5 -1 -12 4 -16 6 -3 7 -15 1 -29 -4 -12 -5 -28 -1 -35 5 -7 5 -30 1 -51
-4 -22 -5 -42 -2 -45 7 -7 8 -75 1 -75 -4 0 -3 -18 1 -39 4 -21 3 -46 -2 -55
-6 -10 -5 -16 2 -16 7 0 8 -6 1 -18 -5 -10 -6 -24 -2 -31 5 -7 5 -31 0 -54 -4
-23 -4 -49 0 -57 8 -19 8 -42 -2 -57 -4 -6 -3 -14 2 -18 7 -3 7 -15 1 -30 -5
-13 -5 -27 -1 -29 5 -3 5 -25 1 -48 -5 -24 -4 -50 1 -60 5 -9 6 -27 1 -40 -4
-13 -6 -36 -5 -53 5 -49 3 -106 -2 -116 -3 -5 -1 -18 5 -29 8 -14 8 -20 0 -20
-6 0 -8 -5 -4 -12 7 -11 7 -64 0 -103 -2 -11 -1 -24 3 -30 8 -15 10 -35 3 -35
-8 0 -5 -217 2 -237 3 -7 1 -13 -5 -13 -6 0 -7 -9 -3 -22 4 -13 7 -27 6 -33
-6 -56 -6 -115 0 -115 4 0 5 -6 2 -14 -8 -22 -10 -127 -2 -132 4 -3 5 -11 1
-19 -8 -22 -9 -325 -1 -325 4 0 5 -7 2 -15 -10 -24 -10 -115 -1 -115 4 0 5 -5
2 -11 -10 -15 -12 -110 -3 -115 5 -3 5 -13 0 -22 -7 -17 -6 -2450 1 -2532 8
-85 42 -207 80 -290 12 -25 21 -47 22 -50 1 -5 17 -32 73 -120 60 -94 271
-290 312 -290 4 0 10 -4 12 -8 4 -9 113 -63 176 -86 40 -15 87 -27 170 -44 45
-9 8495 -10 8537 -1 17 4 48 10 70 14 22 4 45 11 50 15 6 4 23 10 39 14 16 4
48 16 70 27 22 10 46 19 53 19 7 0 13 5 13 10 0 6 6 10 13 10 17 0 152 93 204
140 131 119 229 269 286 440 25 73 31 101 46 205 4 28 7 1677 6 3665 l0 3615
-1010 3 c-555 1 -1016 0 -1024 -3 -11 -5 -11 -8 2 -23 9 -9 15 -19 14 -22 -3
-8 557 -1125 565 -1128 5 -2 8 -9 8 -15 0 -15 162 -340 173 -348 5 -3 9 -10 8
-15 0 -5 53 -115 116 -244 64 -129 118 -238 120 -241 1 -4 -342 -7 -765 -7
l-767 0 -95 191 c-52 106 -98 195 -103 198 -5 3 -7 8 -6 10 4 6 -143 303 -154
310 -5 3 -8 9 -7 13 2 9 -342 700 -353 707 -5 3 -8 9 -7 13 1 4 -65 141 -147
306 l-148 299 -512 1 -512 0 14 -32 c19 -46 72 -147 84 -161 5 -7 9 -16 9 -20
1 -13 175 -361 185 -368 5 -3 8 -10 8 -15 -1 -13 122 -258 131 -262 5 -2 8 -9
8 -15 0 -15 213 -441 222 -445 5 -2 8 -9 8 -15 0 -7 78 -169 174 -360 109
-218 170 -350 163 -352 -7 -3 -352 -3 -767 -2 l-755 2 -255 510 c-140 281
-258 513 -263 516 -5 3 -8 9 -7 13 2 10 -463 940 -472 944 -5 2 -6 7 -4 11 3
3 -3 17 -12 29 l-17 22 -506 -2 -507 -3 61 -125 c33 -69 65 -128 70 -131 5 -3
8 -9 7 -13 -1 -7 188 -390 198 -401 4 -4 7 -10 7 -13 0 -12 259 -527 268 -533
5 -3 8 -9 7 -13 -2 -10 123 -260 132 -264 5 -2 8 -9 8 -15 0 -16 162 -341 175
-349 5 -4 7 -8 3 -8 -4 0 10 -33 31 -72 20 -40 40 -81 43 -90 7 -16 -43 -17
-761 -16 l-768 0 -13 34 c-8 19 -17 34 -22 34 -4 0 -7 3 -6 8 3 10 -142 303
-161 326 -9 10 -15 20 -14 22 4 9 -10 44 -18 44 -5 0 -8 3 -7 8 3 9 -274 565
-285 573 -5 3 -9 10 -9 15 -2 23 -11 44 -19 44 -5 0 -8 3 -7 8 4 10 -264 545
-277 554 -5 4 -7 8 -4 8 4 0 -35 82 -85 183 l-92 182 -306 2 c-169 1 -308 0
-310 -2z"/>
</g>
</svg>
